<svg version="1.1" id="logo-standard" xmlns="http://www.w3.org/2000/svg" xmlns:xlink="http://www.w3.org/1999/xlink" x="0px" y="0px"
	 viewBox="0 0 1000 350" style="enable-background:new 0 0 1000 350;" xml:space="preserve">

<g id="bandarole" fill="#626363">
	<path class="swash" d="M224.8,33.3c-12.2,9.8-20.3,14.2-33.4,28.2c-5,5.4-8.8,12.5-10.7,22.1
		c10.1-6.5,21.7-13.7,32.1-20.4C213.8,51.6,218.5,39.9,224.8,33.3z"/>
	<path class="swash" d="M133.2,187.8c19.1-14.7,79.1-35.5,86.5-77.7c-23.7,15.5-56.4,35.1-64,40.5
		C145.4,157.8,133.2,175.3,133.2,187.8z"/>
	<path class="highlight" fill="#9C9C9C" d="M242.2,43.9c-12,9.1-74.2,46.9-86.4,56.3c-11.8,9.1-21.6,23.7-22.5,37.2
		c-0.9,13.5,0,50.4,0,50.4c0-12.4,12.2-30,22.5-37.2c10.8-7.5,71.5-43.6,86.4-56.3C257,81.6,263.2,69,264.7,57.1
		c2.7-22,0.5-32.4,0-50.4C263.4,19,254.4,34.6,242.2,43.9z"/>
</g>

<g id="text" fill="#626363">>
	<path d="M77.1,220.6c-3.9-3.5-7.8-6.1-11.6-8c-3.8-1.8-8.4-2.7-13.8-2.7c-4.2,0-8,0.9-11.6,2.7
		c-3.6,1.8-6.7,4.5-9.3,8.1c-2.6,3.6-4.7,7.9-6.1,13.1s-2.2,11-2.2,17.6c0,13.1,2.6,23.5,7.9,31.3c5.2,7.8,12.6,11.6,22,11.6
		c5.1,0,9.5-1,13.3-3c3.8-2,7.5-4.8,11.1-8.3l9.1,9.7c-4.4,4.5-9.3,8.1-14.7,10.6c-5.4,2.6-11.8,3.9-19.4,3.9
		c-5.8,0-11.4-1.1-16.7-3.3c-5.4-2.2-10.1-5.6-14.2-10.2c-4.1-4.6-7.4-10.2-9.9-17C8.4,270,7.1,262,7.1,252.7c0-9.8,1.3-18.2,4-25.2
		c2.7-7,6.2-12.7,10.5-17.2c4.3-4.5,9.2-7.8,14.6-10c5.4-2.1,10.9-3.2,16.4-3.2c7.3,0,13.6,1.2,19,3.5c5.4,2.3,10.2,5.3,14.4,8.8
		L77.1,220.6z"/>
	<path d="M101.5,305.1V166.6l15.3-8.5v147H101.5z"/>
	<path d="M219.3,253.7c-0.1,1.2-0.2,2.4-0.5,3.6h-70.2c0.7,11.5,3.6,20.5,8.7,27.2s12,9.9,20.8,9.9
		c6.2,0,11.4-0.9,15.6-2.6c4.2-1.8,8.8-4.2,13.6-7.5l7.1,10.9c-3.2,2-6.2,3.7-9.1,5.3c-2.8,1.5-5.7,2.8-8.7,3.8c-3,1-6,1.8-9.3,2.3
		c-3.2,0.5-6.9,0.8-10.9,0.8c-4.8,0-9.8-0.9-14.9-2.8c-5.1-1.9-9.7-5-13.9-9.4c-4.1-4.4-7.6-10.1-10.3-17.2
		c-2.7-7.1-4.1-15.9-4.1-26.2c0-8.5,1.1-16.1,3.3-22.8c2.2-6.7,5.3-12.4,9.1-17.1c3.9-4.7,8.5-8.3,13.8-10.9
		c5.3-2.6,11.1-3.8,17.4-3.8c6.8,0,12.9,1.3,18.2,3.8c5.3,2.5,9.8,6.1,13.4,10.8c3.6,4.6,6.3,10.2,8.1,16.5
		c1.8,6.4,2.7,13.3,2.7,20.9C219.4,250.9,219.4,252.5,219.3,253.7z M197.6,219.7c-4.6-6.5-11.4-9.7-20.7-9.7
		c-7.9,0-14.4,2.9-19.4,8.6c-5,5.7-8,14.6-8.9,26.5h56.8C204.8,234.6,202.2,226.2,197.6,219.7z"/>
	<path d="M295,305.1v-12.9c-3.8,4-8.3,7.6-13.6,10.6c-5.3,3-11.8,4.5-19.5,4.5c-4.2,0-8.3-0.6-12.3-1.7
		c-4-1.1-7.7-3-10.9-5.6c-3.2-2.6-5.8-6.1-7.8-10.4c-2-4.3-2.9-9.7-2.9-16.1c0-5.9,1.1-11,3.4-15.3c2.3-4.3,5.3-7.8,9-10.6
		c3.7-2.8,8-4.8,12.9-6.1c4.9-1.3,10-1.9,15.2-1.9c5.4,0,10.3,0.6,14.9,1.7c4.6,1.1,8.4,2.6,11.5,4.3v-12.4c0-15.5-7.7-23.3-23-23.3
		c-5.6,0-10.8,0.7-15.4,2.1c-4.6,1.4-9.1,3.4-13.4,5.9l-5.6-12.4c4.7-2.6,10.1-4.7,16.2-6.2c6.1-1.6,12.5-2.4,19.4-2.4
		c11.5,0,20.5,2.7,27.2,8c6.7,5.3,10,14.1,10,26.3v73.8H295z M295,257.7c-3.5-1.9-7.3-3.4-11.4-4.4c-4.1-1.1-9.4-1.6-15.8-1.6
		c-7.8,0-13.9,1.8-18.2,5.3c-4.4,3.6-6.5,8.7-6.5,15.4c0,7.9,2,13.7,5.9,17.2c4,3.6,9.2,5.3,15.6,5.3c6.9,0,12.8-1.5,17.9-4.6
		c5.1-3.1,9.3-6.9,12.5-11.3V257.7z"/>
	<path d="M385.1,215c-2.2-1.2-4.5-2.2-7-2.9c-2.5-0.7-5.5-1.1-9-1.1c-7.4,0-13.1,2.8-17,8.5c-4,5.6-6,13.5-6,23.6v62.1
		h-15.3V199.3h15.3v13.1c2.4-4.3,6-7.9,10.7-10.9c4.7-3,9.9-4.4,15.5-4.4c3.9,0,7.2,0.2,9.8,0.7c2.6,0.5,4.9,1.1,6.8,1.9L385.1,215z
		"/>
	<path d="M401.8,305.1V166.6l15.3-8.5v147H401.8z"/>
	<path d="M468.9,342.4h-15.1l14.5-38.5l-37.7-104.6h15.9l25.8,76.8L476,287l3.6-10.7l26-77h15.9L468.9,342.4z"/>
	<path d="M598.6,221.2c-2.3-1.2-4.6-2.1-7.1-2.8c-2.4-0.7-5.4-1-8.9-1c-6.6,0-11.7,2.3-15.3,6.9
		c-3.6,4.6-5.4,11.4-5.4,20.4v60.5h-21V199.3h21v10.1c2.4-3.5,5.7-6.4,10-8.8c4.2-2.3,9-3.5,14.2-3.5c4.3,0,7.8,0.4,10.6,1.1
		c2.8,0.7,5.2,1.9,7.4,3.3L598.6,221.2z"/>
	<path d="M666.7,305.1v-10.5c-3.6,3.6-7.9,6.7-12.9,9.1c-5,2.4-10.3,3.6-16.1,3.6c-4.3,0-8.6-0.6-13-1.9
		c-4.4-1.3-8.3-3.3-11.8-6.1c-3.5-2.8-6.3-6.5-8.6-11.1c-2.2-4.6-3.3-10.1-3.3-16.5c0-5.9,1.1-11,3.2-15.3c2.1-4.3,5.1-7.9,8.9-10.7
		c3.8-2.8,8.2-4.9,13.3-6.2c5.1-1.3,10.7-2,16.7-2c9.7,0,17.5,1.3,23.6,4v-7.9c0-5.8-1.7-10.2-5.1-13.3c-3.4-3.1-8.4-4.6-14.8-4.6
		c-5.5,0-10.5,0.5-14.8,1.6c-4.4,1.1-8.6,2.8-12.8,5l-8.1-15.7c5.1-3.1,10.5-5.4,16.3-7.1c5.8-1.6,12.4-2.4,20-2.4
		c11.8,0,21.4,2.9,28.7,8.8c7.3,5.8,11,14.8,11,26.7v72.6H666.7z M666.7,259.9c-2.8-1.5-6.1-2.6-10-3.4c-3.8-0.8-8.6-1.2-14.2-1.2
		c-6.7,0-12,1.4-15.9,4.2c-3.9,2.8-5.8,6.6-5.8,11.5c0,5.2,1.7,9.5,5,12.7c3.4,3.2,8.5,4.8,15.3,4.8c5.6,0,10.7-1.4,15.2-4.2
		c4.5-2.8,8-5.9,10.4-9.3V259.9z"/>
	<path d="M755.4,302.5c-2.6,1.5-5.5,2.7-9,3.5c-3.4,0.9-7.2,1.3-11.4,1.3c-7.4,0-13.2-2.3-17.4-6.9
		c-4.2-4.6-6.3-11.6-6.3-21.2v-61.1h-15.1v-18.9h15.1V169l20.4-10.9v41.1h26.2v18.9h-26.2v57.5c0,5,0.8,8.3,2.5,10.1
		c1.7,1.8,4.5,2.6,8.4,2.6c2.7,0,5.4-0.4,8.3-1.3c2.8-0.9,5.2-1.9,7.1-2.9L755.4,302.5z"/>
	<path d="M855.6,255.4c-0.1,1.7-0.3,3.1-0.4,4.1h-69.9c0.5,5.1,1.6,9.5,3.2,13.1c1.6,3.6,3.6,6.6,6.1,9
		c2.4,2.4,5.1,4.1,8.1,5.2c3,1.1,6.1,1.7,9.3,1.7c4.4,0,8.5-0.7,12.2-2.2c3.7-1.5,7.3-3.6,10.8-6.2l12.3,13.3
		c-4.7,4.4-9.9,7.9-15.7,10.3c-5.8,2.4-12.7,3.6-20.8,3.6c-6.2,0-12.1-1.2-17.6-3.6c-5.6-2.4-10.5-6-14.6-10.7
		c-4.2-4.7-7.5-10.5-9.9-17.3c-2.4-6.8-3.6-14.6-3.6-23.4c0-9,1.1-16.9,3.4-23.8c2.3-6.9,5.4-12.6,9.5-17.2c4-4.6,8.9-8.2,14.6-10.6
		c5.7-2.4,12-3.6,18.8-3.6c7.5,0,14.1,1.4,19.6,4.2c5.6,2.8,10.2,6.7,13.9,11.5c3.7,4.8,6.4,10.5,8.3,16.9
		c1.8,6.5,2.7,13.2,2.7,20.4C855.8,252,855.7,253.7,855.6,255.4z M832.9,232.1c-1-3.2-2.5-6-4.5-8.5c-2-2.4-4.5-4.3-7.6-5.7
		c-3-1.4-6.7-2.1-11-2.1c-7,0-12.5,2.3-16.6,7c-4.1,4.6-6.6,11.2-7.6,19.7h49.2C834.5,238.8,833.9,235.4,832.9,232.1z"/>
	<path d="M933.2,305.1v-10.2c-3.9,3.5-8.1,6.5-12.5,8.9c-4.4,2.4-9.5,3.6-15.1,3.6c-5.6,0-11-1.1-15.9-3.2
		c-5-2.1-9.3-5.5-13-10.1c-3.7-4.6-6.6-10.4-8.7-17.6c-2.1-7.2-3.1-15.8-3.1-25.9c0-9,1.1-16.9,3.4-23.6c2.3-6.7,5.3-12.3,9.2-16.7
		c3.8-4.4,8.3-7.7,13.3-9.9c5-2.1,10.3-3.2,15.8-3.2c5.4,0,10.4,1.2,15.1,3.7c4.7,2.4,8.5,5.3,11.5,8.6v-40.4l20.6-10.7v147H933.2z
		 M933.4,230.2c-1.2-1.6-2.7-3.2-4.4-4.8c-1.7-1.6-3.7-3.1-5.8-4.4c-2.1-1.3-4.4-2.4-6.9-3.3c-2.5-0.9-5-1.3-7.5-1.3
		c-7.5,0-13.2,2.8-17.1,8.3c-3.9,5.5-5.8,13.9-5.8,25.2c0,13.4,2,23.1,6.1,29.1c4.1,6,9.9,9,17.6,9c5,0,9.5-1.4,13.6-4.1
		c4.2-2.7,7.6-5.8,10.2-9.3V230.2z"/>
</g>
<g id="trademark" fill="#9C9C9C">>
	<path d="M971.9,201.2V214h-2.6v-12.8H965v-2.6h11.3v2.6H971.9z M990.1,214v-8.1v-1.8c-0.1,0.2-0.2,0.5-0.3,0.7
		c-0.1,0.3-0.2,0.5-0.3,0.8l-3.8,8.8l-3.7-8.8c-0.1-0.3-0.2-0.5-0.3-0.8c-0.1-0.3-0.2-0.5-0.3-0.7c0,0.3,0,0.6,0,0.9
		c0,0.3,0,0.6,0,0.8v8.1h-2.5v-15.3h2.6l3.5,7.9c0.1,0.3,0.3,0.7,0.4,1.1c0.1,0.4,0.3,0.7,0.4,1c0.1-0.3,0.3-0.7,0.4-1
		c0.1-0.4,0.3-0.7,0.4-1.1l3.4-7.9h2.6V214H990.1z"/>
</g>
</svg>
